ply
format ascii 1.0
comment Created by Blender 2.74 (sub 0) - www.blender.org, source file: ''
element vertex 24
property float x
property float y
property float z
property float nx
property float ny
property float nz
property uchar red
property uchar green
property uchar blue
element face 6
property list uchar uint vertex_indices
end_header
1.000000 1.000000 -1.000000 0.000000 0.000000 -1.000000 46 0 255
1.000000 -1.000000 -1.000000 0.000000 0.000000 -1.000000 255 2 0
-1.000000 -1.000000 -1.000000 0.000000 0.000000 -1.000000 33 0 255
-1.000000 1.000000 -1.000000 0.000000 0.000000 -1.000000 255 3 1
1.000000 0.999999 1.000000 0.000000 -0.000000 1.000000 255 2 2
-1.000000 1.000000 1.000000 0.000000 -0.000000 1.000000 40 255 6
-1.000000 -1.000000 1.000000 0.000000 -0.000000 1.000000 255 4 22
0.999999 -1.000001 1.000000 0.000000 -0.000000 1.000000 21 255 57
1.000000 1.000000 -1.000000 1.000000 -0.000000 0.000000 46 0 255
1.000000 0.999999 1.000000 1.000000 -0.000000 0.000000 255 2 2
0.999999 -1.000001 1.000000 1.000000 -0.000000 0.000000 21 255 57
1.000000 -1.000000 -1.000000 1.000000 -0.000000 0.000000 255 2 0
1.000000 -1.000000 -1.000000 -0.000000 -1.000000 -0.000000 255 2 0
0.999999 -1.000001 1.000000 -0.000000 -1.000000 -0.000000 21 255 57
-1.000000 -1.000000 1.000000 -0.000000 -1.000000 -0.000000 255 4 22
-1.000000 -1.000000 -1.000000 -0.000000 -1.000000 -0.000000 33 0 255
-1.000000 -1.000000 -1.000000 -1.000000 0.000000 -0.000000 33 0 255
-1.000000 -1.000000 1.000000 -1.000000 0.000000 -0.000000 255 4 22
-1.000000 1.000000 1.000000 -1.000000 0.000000 -0.000000 40 255 6
-1.000000 1.000000 -1.000000 -1.000000 0.000000 -0.000000 255 3 1
1.000000 0.999999 1.000000 0.000000 1.000000 0.000000 255 21 19
1.000000 1.000000 -1.000000 0.000000 1.000000 0.000000 46 0 255
-1.000000 1.000000 -1.000000 0.000000 1.000000 0.000000 255 57 55
-1.000000 1.000000 1.000000 0.000000 1.000000 0.000000 40 255 6
4 0 1 2 3
4 4 5 6 7
4 8 9 10 11
4 12 13 14 15
4 16 17 18 19
4 20 21 22 23
